<mxfile host="app.diagrams.net" modified="2023-11-26T14:05:53.038Z" agent="Mozilla/5.0 (Windows NT 10.0; Win64; x64) AppleWebKit/537.36 (KHTML, like Gecko) Chrome/118.0.0.0 Safari/537.36 OPR/104.0.0.0 (Edition std-1)" version="22.1.4" etag="MiTAycUHVIBajAM9_PJq" type="github">
  <diagram name="Seite-1" id="O_1vAWQollBgE-EHm2e4">
    <mxGraphModel>
      <root>
        <mxCell id="0" />
        <mxCell id="1" parent="0" />
      </root>
    </mxGraphModel>
  </diagram>
</mxfile>
